<?xml version="1.0" encoding="UTF-8" standalone="no"?>
<!DOCTYPE svg PUBLIC "-//W3C//DTD SVG 1.1//EN" "http://www.w3.org/Graphics/SVG/1.1/DTD/svg11.dtd">
<svg width="100%" height="100%" viewBox="0 0 167 168" version="1.1" xmlns="http://www.w3.org/2000/svg" xmlns:xlink="http://www.w3.org/1999/xlink" xml:space="preserve" xmlns:serif="http://www.serif.com/" style="fill-rule:evenodd;clip-rule:evenodd;stroke-linejoin:round;stroke-miterlimit:2;">
    <g transform="matrix(1,0,0,1,-60.192,-60.4754)">
        <g>
            <g transform="matrix(4.77133,0,0,4.77133,-133.981,-532.029)">
                <path d="M43.607,143.986C43.047,143.986 42.519,143.882 42.023,143.674C41.527,143.466 41.095,143.182 40.727,142.822L41.423,142.006C41.727,142.286 42.071,142.514 42.455,142.69C42.839,142.858 43.247,142.942 43.679,142.942C44.175,142.942 44.559,142.838 44.831,142.63C45.103,142.422 45.239,142.158 45.239,141.838C45.239,141.582 45.179,141.378 45.059,141.226C44.939,141.074 44.775,140.946 44.567,140.842C44.367,140.738 44.135,140.634 43.871,140.53L42.767,140.038C42.503,139.934 42.239,139.798 41.975,139.63C41.719,139.454 41.507,139.234 41.339,138.97C41.171,138.698 41.087,138.37 41.087,137.986C41.087,137.578 41.199,137.214 41.423,136.894C41.647,136.566 41.959,136.31 42.359,136.126C42.759,135.934 43.219,135.838 43.739,135.838C44.227,135.838 44.683,135.93 45.107,136.114C45.531,136.29 45.895,136.526 46.199,136.822L45.575,137.59C45.319,137.366 45.039,137.194 44.735,137.074C44.439,136.946 44.087,136.882 43.679,136.882C43.271,136.882 42.939,136.974 42.683,137.158C42.427,137.342 42.299,137.594 42.299,137.914C42.299,138.146 42.363,138.334 42.491,138.478C42.627,138.622 42.799,138.742 43.007,138.838C43.223,138.934 43.443,139.03 43.667,139.126L44.735,139.594C45.063,139.722 45.355,139.878 45.611,140.062C45.875,140.238 46.083,140.458 46.235,140.722C46.387,140.986 46.463,141.31 46.463,141.694C46.463,142.118 46.347,142.506 46.115,142.858C45.891,143.202 45.563,143.478 45.131,143.686C44.707,143.886 44.199,143.986 43.607,143.986Z" style="fill-rule:nonzero;"/>
                <path d="M50.171,143.842L50.171,136.99L47.639,136.99L47.639,135.982L53.903,135.982L53.903,136.99L51.371,136.99L51.371,143.842L50.171,143.842Z" style="fill-rule:nonzero;"/>
                <path d="M57.971,143.986C57.371,143.986 56.839,143.826 56.375,143.506C55.919,143.178 55.559,142.71 55.295,142.102C55.039,141.486 54.911,140.746 54.911,139.882C54.911,139.026 55.039,138.298 55.295,137.698C55.559,137.09 55.919,136.63 56.375,136.318C56.839,135.998 57.371,135.838 57.971,135.838C58.571,135.838 59.099,135.998 59.555,136.318C60.019,136.63 60.379,137.09 60.635,137.698C60.899,138.298 61.031,139.026 61.031,139.882C61.031,140.746 60.899,141.486 60.635,142.102C60.379,142.71 60.019,143.178 59.555,143.506C59.099,143.826 58.571,143.986 57.971,143.986ZM57.971,142.942C58.339,142.942 58.659,142.822 58.931,142.582C59.203,142.334 59.415,141.982 59.567,141.526C59.719,141.07 59.795,140.522 59.795,139.882C59.795,139.242 59.719,138.702 59.567,138.262C59.415,137.814 59.203,137.474 58.931,137.242C58.659,137.002 58.339,136.882 57.971,136.882C57.603,136.882 57.283,137.002 57.011,137.242C56.739,137.474 56.527,137.814 56.375,138.262C56.223,138.702 56.147,139.242 56.147,139.882C56.147,140.522 56.223,141.07 56.375,141.526C56.527,141.982 56.739,142.334 57.011,142.582C57.283,142.822 57.603,142.942 57.971,142.942Z" style="fill-rule:nonzero;"/>
                <path d="M64.571,143.842L64.571,136.99L62.039,136.99L62.039,135.982L68.303,135.982L68.303,136.99L65.771,136.99L65.771,143.842L64.571,143.842Z" style="fill-rule:nonzero;"/>
                <path d="M71.771,143.842L71.771,136.99L69.239,136.99L69.239,135.982L75.503,135.982L75.503,136.99L72.971,136.99L72.971,143.842L71.771,143.842Z" style="fill-rule:nonzero;"/>
            </g>
            <g transform="matrix(4.02252,0,0,4.02252,-104.436,-366.617)">
                <path d="M40.967,143.842L40.967,135.982L42.959,135.982C43.743,135.982 44.407,136.13 44.951,136.426C45.503,136.722 45.923,137.162 46.211,137.746C46.499,138.322 46.643,139.034 46.643,139.882C46.643,140.73 46.499,141.45 46.211,142.042C45.923,142.634 45.511,143.082 44.975,143.386C44.439,143.69 43.787,143.842 43.019,143.842L40.967,143.842ZM42.167,142.87L42.887,142.87C43.439,142.87 43.899,142.758 44.267,142.534C44.643,142.302 44.927,141.966 45.119,141.526C45.311,141.086 45.407,140.538 45.407,139.882C45.407,139.226 45.311,138.682 45.119,138.25C44.927,137.818 44.643,137.494 44.267,137.278C43.899,137.062 43.439,136.954 42.887,136.954L42.167,136.954L42.167,142.87Z" style="fill-rule:nonzero;"/>
                <path d="M48.479,143.842L48.479,135.982L53.423,135.982L53.423,136.99L49.679,136.99L49.679,139.234L52.847,139.234L52.847,140.242L49.679,140.242L49.679,142.834L53.543,142.834L53.543,143.842L48.479,143.842Z" style="fill-rule:nonzero;"/>
                <path d="M58.007,143.986C57.447,143.986 56.919,143.882 56.423,143.674C55.927,143.466 55.495,143.182 55.127,142.822L55.823,142.006C56.127,142.286 56.471,142.514 56.855,142.69C57.239,142.858 57.647,142.942 58.079,142.942C58.575,142.942 58.959,142.838 59.231,142.63C59.503,142.422 59.639,142.158 59.639,141.838C59.639,141.582 59.579,141.378 59.459,141.226C59.339,141.074 59.175,140.946 58.967,140.842C58.767,140.738 58.535,140.634 58.271,140.53L57.167,140.038C56.903,139.934 56.639,139.798 56.375,139.63C56.119,139.454 55.907,139.234 55.739,138.97C55.571,138.698 55.487,138.37 55.487,137.986C55.487,137.578 55.599,137.214 55.823,136.894C56.047,136.566 56.359,136.31 56.759,136.126C57.159,135.934 57.619,135.838 58.139,135.838C58.627,135.838 59.083,135.93 59.507,136.114C59.931,136.29 60.295,136.526 60.599,136.822L59.975,137.59C59.719,137.366 59.439,137.194 59.135,137.074C58.839,136.946 58.487,136.882 58.079,136.882C57.671,136.882 57.339,136.974 57.083,137.158C56.827,137.342 56.699,137.594 56.699,137.914C56.699,138.146 56.763,138.334 56.891,138.478C57.027,138.622 57.199,138.742 57.407,138.838C57.623,138.934 57.843,139.03 58.067,139.126L59.135,139.594C59.463,139.722 59.755,139.878 60.011,140.062C60.275,140.238 60.483,140.458 60.635,140.722C60.787,140.986 60.863,141.31 60.863,141.694C60.863,142.118 60.747,142.506 60.515,142.858C60.291,143.202 59.963,143.478 59.531,143.686C59.107,143.886 58.599,143.986 58.007,143.986Z" style="fill-rule:nonzero;"/>
                <path d="M62.651,143.842L62.651,142.834L64.571,142.834L64.571,136.99L62.651,136.99L62.651,135.982L67.691,135.982L67.691,136.99L65.771,136.99L65.771,142.834L67.691,142.834L67.691,143.842L62.651,143.842Z" style="fill-rule:nonzero;"/>
                <path d="M72.839,143.986C72.175,143.986 71.583,143.83 71.063,143.518C70.543,143.198 70.131,142.734 69.827,142.126C69.531,141.518 69.383,140.786 69.383,139.93C69.383,139.074 69.535,138.342 69.839,137.734C70.143,137.118 70.559,136.65 71.087,136.33C71.623,136.002 72.227,135.838 72.899,135.838C73.427,135.838 73.867,135.942 74.219,136.15C74.579,136.35 74.875,136.57 75.107,136.81L74.435,137.566C74.251,137.366 74.039,137.202 73.799,137.074C73.559,136.946 73.259,136.882 72.899,136.882C72.451,136.882 72.055,137.006 71.711,137.254C71.367,137.494 71.099,137.838 70.907,138.286C70.715,138.734 70.619,139.27 70.619,139.894C70.619,140.518 70.707,141.058 70.883,141.514C71.067,141.97 71.327,142.322 71.663,142.57C72.007,142.818 72.423,142.942 72.911,142.942C73.151,142.942 73.379,142.906 73.595,142.834C73.811,142.762 73.983,142.662 74.111,142.534L74.111,140.662L72.659,140.662L72.659,139.678L75.215,139.678L75.215,143.062C74.959,143.318 74.623,143.538 74.207,143.722C73.799,143.898 73.343,143.986 72.839,143.986Z" style="fill-rule:nonzero;"/>
                <path d="M76.907,143.842L76.907,135.982L78.191,135.982L80.483,140.65L81.215,142.306L81.251,142.306C81.227,141.906 81.191,141.482 81.143,141.034C81.103,140.586 81.083,140.15 81.083,139.726L81.083,135.982L82.235,135.982L82.235,143.842L80.951,143.842L78.659,139.174L77.927,137.518L77.891,137.518C77.915,137.926 77.947,138.35 77.987,138.79C78.035,139.222 78.059,139.65 78.059,140.074L78.059,143.842L76.907,143.842Z" style="fill-rule:nonzero;"/>
            </g>
            <g transform="matrix(1,0,0,1,-0.797598,0.265866)">
                <rect x="60.99" y="219.123" width="36.039" height="8.984"/>
            </g>
            <g transform="matrix(1,0,0,1,129.356,0.265866)">
                <rect x="60.99" y="219.123" width="36.039" height="8.984"/>
            </g>
            <g transform="matrix(1,0,0,1,129.356,-59.0223)">
                <rect x="60.99" y="219.123" width="36.039" height="8.984"/>
            </g>
            <g transform="matrix(1,0,0,1,-0.797598,-59.0223)">
                <rect x="60.99" y="219.123" width="36.039" height="8.984"/>
            </g>
            <g transform="matrix(1.02014,0,0,0.983838,63.1782,-55.4809)">
                <path d="M97.028,219.123L94.395,228.034L63.907,227.96L60.99,219.123L97.028,219.123Z"/>
            </g>
            <g transform="matrix(1,0,0,1,-1.18092,0)">
                <path d="M97.219,109.934L61.373,109.934L61.373,60.475L115.974,60.475L136.997,109.934L105.629,109.934L97.219,88.759L97.219,109.934Z"/>
            </g>
            <g transform="matrix(-1,0,0,1,287.758,0)">
                <path d="M97.219,109.934L61.373,109.934L61.373,60.475L115.974,60.475L136.997,109.934L105.629,109.934L97.219,88.759L97.219,109.934Z"/>
            </g>
        </g>
    </g>
</svg>
